{
  "accessors": [
    {
      "bufferView": 2,
      "componentType": 5126,
      "count": 65533,
      "max": [
        4.0845909118652344,
        -128.72502136230469,
        27.705961227416992
      ],
      "min": [
        -27.68385124206543,
        -155.01112365722656,
        -4.5783982276916504
      ],
      "type": "VEC3"
    },
    {
      "bufferView": 2,
      "byteOffset": 786396,
      "componentType": 5126,
      "count": 65533,
      "max": [
        0.99968022108078003,
        0.99999982118606567,
        0.99997919797897339
      ],
      "min": [
        -0.99986696243286133,
        -0.99995368719100952,
        -0.99997460842132568
      ],
      "type": "VEC3"
    },
    {
      "bufferView": 3,
      "componentType": 5126,
      "count": 65533,
      "max": [
        0.99993884563446045,
        0.99995911121368408,
        0.99997544288635254,
        1
      ],
      "min": [
        -0.99974608421325684,
        -0.99962091445922852,
        -0.99966317415237427,
        -1
      ],
      "type": "VEC4"
    },
    {
      "bufferView": 1,
      "componentType": 5126,
      "count": 65533,
      "max": [
        0.99763697385787964,
        0.99945700168609619
      ],
      "min": [
        0.0037350000347942114,
        0.0039369999431073666
      ],
      "type": "VEC2"
    },
    {
      "bufferView": 0,
      "componentType": 5125,
      "count": 327336,
      "max": [
        65532
      ],
      "min": [
        0
      ],
      "type": "SCALAR"
    },
    {
      "bufferView": 2,
      "byteOffset": 1572792,
      "componentType": 5126,
      "count": 65532,
      "max": [
        0.5175589919090271,
        -133.040771484375,
        27.716184616088867
      ],
      "min": [
        -28.712404251098633,
        -146.41131591796875,
        -4.6837081909179688
      ],
      "type": "VEC3"
    },
    {
      "bufferView": 2,
      "byteOffset": 2359176,
      "componentType": 5126,
      "count": 65532,
      "max": [
        0.99997347593307495,
        0.99994432926177979,
        0.99993801116943359
      ],
      "min": [
        -0.99980711936950684,
        -0.99995154142379761,
        -0.99996602535247803
      ],
      "type": "VEC3"
    },
    {
      "bufferView": 3,
      "byteOffset": 1048528,
      "componentType": 5126,
      "count": 65532,
      "max": [
        0.99942266941070557,
        0.99975329637527466,
        0.99999368190765381,
        1
      ],
      "min": [
        -0.99983108043670654,
        -0.99998486042022705,
        -0.99997621774673462,
        -1
      ],
      "type": "VEC4"
    },
    {
      "bufferView": 1,
      "byteOffset": 524264,
      "componentType": 5126,
      "count": 65532,
      "max": [
        0.99585700035095215,
        0.99996399879455566
      ],
      "min": [
        0.0037150001153349876,
        0.0039869998581707478
      ],
      "type": "VEC2"
    },
    {
      "bufferView": 0,
      "byteOffset": 1309344,
      "componentType": 5125,
      "count": 290985,
      "max": [
        65531
      ],
      "min": [
        0
      ],
      "type": "SCALAR"
    },
    {
      "bufferView": 2,
      "byteOffset": 3145560,
      "componentType": 5126,
      "count": 65532,
      "max": [
        3.6252100467681885,
        -136.66671752929688,
        26.562957763671875
      ],
      "min": [
        -28.786775588989258,
        -149.24398803710938,
        -4.5633139610290527
      ],
      "type": "VEC3"
    },
    {
      "bufferView": 2,
      "byteOffset": 3931944,
      "componentType": 5126,
      "count": 65532,
      "max": [
        0.99893897771835327,
        0.99963539838790894,
        0.9999580979347229
      ],
      "min": [
        -0.99956005811691284,
        -0.99997425079345703,
        -0.99999707937240601
      ],
      "type": "VEC3"
    },
    {
      "bufferView": 3,
      "byteOffset": 2097040,
      "componentType": 5126,
      "count": 65532,
      "max": [
        0.99999427795410156,
        0.9999535083770752,
        0.99999320507049561,
        1
      ],
      "min": [
        -0.99997812509536743,
        -0.99974793195724487,
        -0.99996626377105713,
        -1
      ],
      "type": "VEC4"
    },
    {
      "bufferView": 1,
      "byteOffset": 1048520,
      "componentType": 5126,
      "count": 65532,
      "max": [
        0.99692702293395996,
        0.9994959831237793
      ],
      "min": [
        0.0037920000031590462,
        0.0041029998101294041
      ],
      "type": "VEC2"
    },
    {
      "bufferView": 0,
      "byteOffset": 2473284,
      "componentType": 5125,
      "count": 303903,
      "max": [
        65531
      ],
      "min": [
        0
      ],
      "type": "SCALAR"
    },
    {
      "bufferView": 2,
      "byteOffset": 4718328,
      "componentType": 5126,
      "count": 65532,
      "max": [
        3.6694600582122803,
        -139.74563598632812,
        26.559484481811523
      ],
      "min": [
        -27.963123321533203,
        -154.424072265625,
        -4.3211069107055664
      ],
      "type": "VEC3"
    },
    {
      "bufferView": 2,
      "byteOffset": 5504712,
      "componentType": 5126,
      "count": 65532,
      "max": [
        0.99971842765808105,
        0.99963539838790894,
        0.9999394416809082
      ],
      "min": [
        -0.99994313716888428,
        -0.99997425079345703,
        -0.99997937679290771
      ],
      "type": "VEC3"
    },
    {
      "bufferView": 3,
      "byteOffset": 3145552,
      "componentType": 5126,
      "count": 65532,
      "max": [
        0.99994802474975586,
        0.99930542707443237,
        0.99995547533035278,
        1
      ],
      "min": [
        -0.99996334314346313,
        -0.9999428391456604,
        -0.99991768598556519,
        -1
      ],
      "type": "VEC4"
    },
    {
      "bufferView": 1,
      "byteOffset": 1572776,
      "componentType": 5126,
      "count": 65532,
      "max": [
        0.99753600358963013,
        1.0000499486923218
      ],
      "min": [
        0.0041600000113248825,
        0.0034050000831484795
      ],
      "type": "VEC2"
    },
    {
      "bufferView": 0,
      "byteOffset": 3688896,
      "componentType": 5125,
      "count": 305589,
      "max": [
        65531
      ],
      "min": [
        0
      ],
      "type": "SCALAR"
    },
    {
      "bufferView": 2,
      "byteOffset": 6291096,
      "componentType": 5126,
      "count": 60056,
      "max": [
        3.2817339897155762,
        -143.89366149902344,
        27.311550140380859
      ],
      "min": [
        -24.445823669433594,
        -157.73558044433594,
        -2.902040958404541
      ],
      "type": "VEC3"
    },
    {
      "bufferView": 2,
      "byteOffset": 7011768,
      "componentType": 5126,
      "count": 60056,
      "max": [
        0.99834388494491577,
        0.99977409839630127,
        0.99987280368804932
      ],
      "min": [
        -0.99986851215362549,
        -0.99999886751174927,
        -0.99999111890792847
      ],
      "type": "VEC3"
    },
    {
      "bufferView": 3,
      "byteOffset": 4194064,
      "componentType": 5126,
      "count": 60056,
      "max": [
        0.9998314380645752,
        0.99956345558166504,
        0.99998658895492554,
        1
      ],
      "min": [
        -0.99972271919250488,
        -0.99950063228607178,
        -0.99999833106994629,
        -1
      ],
      "type": "VEC4"
    },
    {
      "bufferView": 1,
      "byteOffset": 2097032,
      "componentType": 5126,
      "count": 60056,
      "max": [
        0.99702399969100952,
        0.99953001737594604
      ],
      "min": [
        0.0047510000877082348,
        0.003014999907463789
      ],
      "type": "VEC2"
    },
    {
      "bufferView": 0,
      "byteOffset": 4911252,
      "componentType": 5125,
      "count": 275241,
      "max": [
        60055
      ],
      "min": [
        0
      ],
      "type": "SCALAR"
    }
  ],
  "asset": {
    "extras": {
      "author": "RCE (https://sketchfab.com/RCE)",
      "license": "CC-BY-4.0 (http://creativecommons.org/licenses/by/4.0/)",
      "source": "https://sketchfab.com/models/2812d01200874f0ea28bed6e269e1a05",
      "title": "Purdue Class of 1903 Lion"
    },
    "generator": "Sketchfab-3.18.7",
    "version": "2.0"
  },
  "bufferViews": [
    {
      "buffer": 0,
      "byteLength": 6012216,
      "byteOffset": 0,
      "name": "floatBufferViews",
      "target": 34963
    },
    {
      "buffer": 0,
      "byteLength": 2577480,
      "byteOffset": 6012216,
      "byteStride": 8,
      "name": "floatBufferViews",
      "target": 34962
    },
    {
      "buffer": 0,
      "byteLength": 7732440,
      "byteOffset": 8589696,
      "byteStride": 12,
      "name": "floatBufferViews",
      "target": 34962
    },
    {
      "buffer": 0,
      "byteLength": 5154960,
      "byteOffset": 16322136,
      "byteStride": 16,
      "name": "floatBufferViews",
      "target": 34962
    }
  ],
  "buffers": [
    {
      "byteLength": 21477096,
      "uri": "scene.bin"
    }
  ],
  "extensionsUsed": [
    "KHR_materials_unlit"
  ],
  "images": [
    {
      "uri": "textures/Classof1903Lion_baseColor.jpeg"
    }
  ],
  "materials": [
    {
      "doubleSided": true,
      "emissiveFactor": [
        0,
        0,
        0
      ],
      "extensions": {
        "KHR_materials_unlit": {}
      },
      "name": "Classof1903Lion",
      "pbrMetallicRoughness": {
        "baseColorFactor": [
          1,
          1,
          1,
          1
        ],
        "baseColorTexture": {
          "index": 0,
          "texCoord": 0
        },
        "metallicFactor": 0,
        "roughnessFactor": 1
      }
    }
  ],
  "meshes": [
    {
      "primitives": [
        {
          "attributes": {
            "NORMAL": 1,
            "POSITION": 0,
            "TANGENT": 2,
            "TEXCOORD_0": 3
          },
          "indices": 4,
          "material": 0,
          "mode": 4
        }
      ]
    },
    {
      "primitives": [
        {
          "attributes": {
            "NORMAL": 6,
            "POSITION": 5,
            "TANGENT": 7,
            "TEXCOORD_0": 8
          },
          "indices": 9,
          "material": 0,
          "mode": 4
        }
      ]
    },
    {
      "primitives": [
        {
          "attributes": {
            "NORMAL": 11,
            "POSITION": 10,
            "TANGENT": 12,
            "TEXCOORD_0": 13
          },
          "indices": 14,
          "material": 0,
          "mode": 4
        }
      ]
    },
    {
      "primitives": [
        {
          "attributes": {
            "NORMAL": 16,
            "POSITION": 15,
            "TANGENT": 17,
            "TEXCOORD_0": 18
          },
          "indices": 19,
          "material": 0,
          "mode": 4
        }
      ]
    },
    {
      "primitives": [
        {
          "attributes": {
            "NORMAL": 21,
            "POSITION": 20,
            "TANGENT": 22,
            "TEXCOORD_0": 23
          },
          "indices": 24,
          "material": 0,
          "mode": 4
        }
      ]
    }
  ],
  "nodes": [
    {
      "children": [
        1
      ],
      "name": "RootNode (gltf orientation matrix)",
      "rotation": [
        -0.70710678118654746,
        -0,
        -0,
        0.70710678118654757
      ]
    },
    {
      "children": [
        2
      ],
      "matrix": [
        0,
        1,
        0,
        0,
        0,
        0,
        1,
        0,
        1,
        0,
        0,
        0,
        -23.867256164550781,
        -130.87968444824219,
        154.74693298339844,
        1
      ],
      "name": "RootNode (model correction matrix)"
    },
    {
      "children": [
        3,
        4,
        5,
        6,
        7
      ],
      "name": "Classof1903Lion.obj.cleaner.materialmerger.gles"
    },
    {
      "mesh": 0,
      "name": ""
    },
    {
      "mesh": 1,
      "name": ""
    },
    {
      "mesh": 2,
      "name": ""
    },
    {
      "mesh": 3,
      "name": ""
    },
    {
      "mesh": 4,
      "name": ""
    }
  ],
  "samplers": [
    {
      "magFilter": 9729,
      "minFilter": 9987,
      "wrapS": 10497,
      "wrapT": 10497
    }
  ],
  "scene": 0,
  "scenes": [
    {
      "name": "OSG_Scene",
      "nodes": [
        0
      ]
    }
  ],
  "textures": [
    {
      "sampler": 0,
      "source": 0
    }
  ]
}

